<?xml version="1.0" standalone="no"?>
<!DOCTYPE svg PUBLIC "-//W3C//DTD SVG 20010904//EN"
 "http://www.w3.org/TR/2001/REC-SVG-20010904/DTD/svg10.dtd">
<svg version="1.0" xmlns="http://www.w3.org/2000/svg"
 width="225.000000pt" height="225.000000pt" viewBox="0 0 225.000000 225.000000"
 preserveAspectRatio="xMidYMid meet">
<metadata>
Created by potrace 1.14, written by Peter Selinger 2001-2017
</metadata>
<g transform="translate(0.000000,225.000000) scale(0.100000,-0.100000)"
fill="#000000" stroke="none">
<path d="M985 2234 c-251 -37 -457 -138 -633 -308 -230 -223 -342 -488 -342
-813 0 -307 109 -565 335 -790 437 -435 1150 -427 1582 18 216 222 318 477
316 789 -1 252 -67 452 -214 650 -117 158 -246 265 -422 351 -149 72 -268 100
-447 104 -80 2 -158 1 -175 -1z m370 -539 c21 -20 25 -34 25 -85 l0 -60 174 0
c132 0 182 -4 210 -15 70 -29 68 -17 73 -492 4 -412 4 -429 -15 -459 -42 -66
-25 -64 -699 -64 -684 0 -660 -3 -697 73 -17 36 -18 60 -11 464 l7 425 25 24
c14 14 36 30 50 35 13 5 105 9 203 9 173 0 178 1 173 20 -9 36 7 110 30 130
19 19 35 20 224 20 203 0 204 0 228 -25z"/>
<path d="M930 1585 l0 -75 195 0 195 0 0 75 0 75 -195 0 -195 0 0 -75z"/>
<path d="M492 1470 c-62 -58 10 -171 186 -292 71 -49 157 -87 244 -108 110
-26 118 -26 118 5 0 37 45 75 87 75 42 0 83 -38 83 -76 0 -26 1 -26 46 -19
142 21 259 73 381 169 131 104 176 193 123 246 -20 20 -33 20 -633 20 -603 0
-614 0 -635 -20z"/>
<path d="M470 1031 l0 -271 655 0 655 0 0 272 c0 241 -2 270 -14 252 -22 -31
-143 -128 -211 -169 -77 -46 -150 -73 -255 -95 l-85 -17 -3 -34 c-5 -49 -37
-79 -84 -79 -51 0 -88 35 -88 82 l0 33 -74 12 c-153 25 -315 110 -441 232
l-55 54 0 -272z"/>
<path d="M470 670 c0 -37 5 -55 20 -70 20 -20 33 -20 635 -20 602 0 615 0 635
20 15 15 20 33 20 70 l0 50 -655 0 -655 0 0 -50z"/>
</g>
</svg>
